<svg xmlns="http://www.w3.org/2000/svg" viewBox="0 0 1000 1000">
  <g fill="#000">
    <!-- Stalk 1 -->
    <path d="M180,-100 Q200,400 150,1100 L170,1100 Q220,400 200,-100 Z"/>
    <!-- Leaves for Stalk 1 -->
    <path d="M190,100 C300,20 450,50 500,150 C350,120 250,150 190,120 Z"/>
    <path d="M192,110 C320,60 480,100 520,200 C380,160 280,180 192,130 Z"/>
    <path d="M185,250 C80,180 -20,220 -80,300 C0,270 80,280 185,270 Z"/>
    <path d="M195,400 C350,320 500,380 550,500 C400,450 300,450 195,420 Z"/>
    <path d="M190,410 C320,360 450,450 480,580 C360,490 280,480 190,430 Z"/>
    <path d="M175,600 C60,520 -40,580 -100,680 C-20,630 60,640 175,620 Z"/>
    <path d="M170,610 C80,550 0,600 -50,700 C20,660 80,660 170,630 Z"/>
    
    <!-- Stalk 2 -->
    <path d="M550,-100 Q520,400 580,1100 L560,1100 Q500,400 530,-100 Z"/>
    <!-- Leaves for Stalk 2 -->
    <path d="M535,150 C400,80 280,120 220,220 C350,180 450,200 535,170 Z"/>
    <path d="M530,160 C420,110 300,160 250,260 C380,210 480,220 530,180 Z"/>
    <path d="M545,350 C680,280 800,320 880,420 C750,380 650,400 545,370 Z"/>
    <path d="M540,360 C650,310 750,380 800,480 C700,420 600,420 540,380 Z"/>
    <path d="M525,550 C400,480 280,520 220,620 C350,580 450,600 525,570 Z"/>
    <path d="M520,560 C420,510 300,560 250,660 C380,610 480,620 520,580 Z"/>
    
    <!-- Stalk 3 -->
    <path d="M850,-100 Q880,400 820,1100 L840,1100 Q900,400 870,-100 Z"/>
    <!-- Leaves for Stalk 3 -->
    <path d="M865,200 C750,120 620,160 550,280 C680,230 780,250 865,220 Z"/>
    <path d="M875,450 C980,380 1080,420 1150,520 C1050,480 950,500 875,470 Z"/>
    <path d="M860,700 C750,620 620,660 550,780 C680,730 780,750 860,720 Z"/>
    
    <!-- Extra floating leaves for density -->
    <path d="M350,250 C450,180 550,220 600,300 C500,270 420,280 350,260 Z" />
    <path d="M700,150 C800,80 900,120 950,200 C850,170 770,180 700,160 Z" />
    <path d="M100,500 C200,430 300,470 350,550 C250,520 170,530 100,510 Z" />
    <path d="M750,550 C850,480 950,520 1000,600 C900,570 820,580 750,560 Z" />
    <path d="M400,650 C500,580 600,620 650,700 C550,670 470,680 400,660 Z" />
  </g>
</svg>
